<mxfile host="app.diagrams.net" modified="2021-05-11T02:51:54.778Z" agent="5.0 (X11; CrOS aarch64 13816.64.0) AppleWebKit/537.36 (KHTML, like Gecko) Chrome/90.0.4430.100 Safari/537.36" etag="uGxWI4O9LqoHuct0x9CT" version="14.6.11" type="github">
  <diagram id="76sn7JnP4TGYzvHoZEPN" name="Page-1">
    <mxGraphModel dx="582" dy="415" grid="1" gridSize="10" guides="1" tooltips="1" connect="1" arrows="1" fold="1" page="1" pageScale="1" pageWidth="850" pageHeight="1100" math="0" shadow="0">
      <root>
        <mxCell id="0" />
        <mxCell id="1" parent="0" />
        <mxCell id="O7Q-bMxJM0tG6xwcFe3C-8" style="edgeStyle=orthogonalEdgeStyle;rounded=0;orthogonalLoop=1;jettySize=auto;html=1;exitX=0.5;exitY=1;exitDx=0;exitDy=0;entryX=0.5;entryY=0;entryDx=0;entryDy=0;" edge="1" parent="1" source="O7Q-bMxJM0tG6xwcFe3C-1" target="O7Q-bMxJM0tG6xwcFe3C-2">
          <mxGeometry relative="1" as="geometry" />
        </mxCell>
        <mxCell id="O7Q-bMxJM0tG6xwcFe3C-10" style="edgeStyle=orthogonalEdgeStyle;rounded=0;orthogonalLoop=1;jettySize=auto;html=1;exitX=0.5;exitY=1;exitDx=0;exitDy=0;" edge="1" parent="1" source="O7Q-bMxJM0tG6xwcFe3C-1" target="O7Q-bMxJM0tG6xwcFe3C-4">
          <mxGeometry relative="1" as="geometry" />
        </mxCell>
        <mxCell id="O7Q-bMxJM0tG6xwcFe3C-13" style="edgeStyle=orthogonalEdgeStyle;rounded=0;orthogonalLoop=1;jettySize=auto;html=1;exitX=0.5;exitY=1;exitDx=0;exitDy=0;entryX=0.5;entryY=0;entryDx=0;entryDy=0;" edge="1" parent="1" source="O7Q-bMxJM0tG6xwcFe3C-1" target="O7Q-bMxJM0tG6xwcFe3C-6">
          <mxGeometry relative="1" as="geometry" />
        </mxCell>
        <mxCell id="O7Q-bMxJM0tG6xwcFe3C-1" value="Can you date my grandchild?" style="rounded=0;whiteSpace=wrap;html=1;" vertex="1" parent="1">
          <mxGeometry x="240" y="190" width="120" height="60" as="geometry" />
        </mxCell>
        <mxCell id="O7Q-bMxJM0tG6xwcFe3C-9" style="edgeStyle=orthogonalEdgeStyle;rounded=0;orthogonalLoop=1;jettySize=auto;html=1;exitX=0.5;exitY=1;exitDx=0;exitDy=0;entryX=0.5;entryY=0;entryDx=0;entryDy=0;" edge="1" parent="1" source="O7Q-bMxJM0tG6xwcFe3C-2" target="O7Q-bMxJM0tG6xwcFe3C-3">
          <mxGeometry relative="1" as="geometry" />
        </mxCell>
        <mxCell id="O7Q-bMxJM0tG6xwcFe3C-2" value="Input" style="rounded=0;whiteSpace=wrap;html=1;" vertex="1" parent="1">
          <mxGeometry x="70" y="300" width="120" height="60" as="geometry" />
        </mxCell>
        <mxCell id="O7Q-bMxJM0tG6xwcFe3C-3" value="Get answers" style="rounded=0;whiteSpace=wrap;html=1;" vertex="1" parent="1">
          <mxGeometry x="70" y="410" width="120" height="60" as="geometry" />
        </mxCell>
        <mxCell id="O7Q-bMxJM0tG6xwcFe3C-12" style="edgeStyle=orthogonalEdgeStyle;rounded=0;orthogonalLoop=1;jettySize=auto;html=1;exitX=0.5;exitY=1;exitDx=0;exitDy=0;entryX=0.5;entryY=0;entryDx=0;entryDy=0;" edge="1" parent="1" source="O7Q-bMxJM0tG6xwcFe3C-4" target="O7Q-bMxJM0tG6xwcFe3C-5">
          <mxGeometry relative="1" as="geometry" />
        </mxCell>
        <mxCell id="O7Q-bMxJM0tG6xwcFe3C-4" value="Process" style="rounded=0;whiteSpace=wrap;html=1;" vertex="1" parent="1">
          <mxGeometry x="240" y="300" width="120" height="60" as="geometry" />
        </mxCell>
        <mxCell id="O7Q-bMxJM0tG6xwcFe3C-5" value="Check if answers = yes or no for both" style="rounded=0;whiteSpace=wrap;html=1;" vertex="1" parent="1">
          <mxGeometry x="240" y="410" width="120" height="60" as="geometry" />
        </mxCell>
        <mxCell id="O7Q-bMxJM0tG6xwcFe3C-15" style="edgeStyle=orthogonalEdgeStyle;rounded=0;orthogonalLoop=1;jettySize=auto;html=1;exitX=0.5;exitY=1;exitDx=0;exitDy=0;entryX=0.5;entryY=0;entryDx=0;entryDy=0;" edge="1" parent="1" source="O7Q-bMxJM0tG6xwcFe3C-6" target="O7Q-bMxJM0tG6xwcFe3C-7">
          <mxGeometry relative="1" as="geometry" />
        </mxCell>
        <mxCell id="O7Q-bMxJM0tG6xwcFe3C-6" value="Output" style="rounded=0;whiteSpace=wrap;html=1;" vertex="1" parent="1">
          <mxGeometry x="410" y="300" width="120" height="60" as="geometry" />
        </mxCell>
        <mxCell id="O7Q-bMxJM0tG6xwcFe3C-7" value="Show if eligible to date the grandchild" style="rounded=0;whiteSpace=wrap;html=1;" vertex="1" parent="1">
          <mxGeometry x="410" y="410" width="120" height="60" as="geometry" />
        </mxCell>
      </root>
    </mxGraphModel>
  </diagram>
</mxfile>
